<svg xmlns="http://www.w3.org/2000/svg" xmlns:xlink="http://www.w3.org/1999/xlink" width="500" zoomAndPan="magnify" viewBox="0 0 375 374.999991" height="500" preserveAspectRatio="xMidYMid meet" version="1.0"><defs><g/><clipPath id="c931cac21b"><path d="M 230 169 L 261.589844 169 L 261.589844 214 L 230 214 Z M 230 169 " clip-rule="nonzero"/></clipPath></defs><path fill="#004aad" d="M 375.003906 187.5 C 375.003906 162.191406 370.046875 137.632812 360.265625 114.511719 C 350.820312 92.183594 337.304688 72.132812 320.085938 54.914062 C 302.867188 37.695312 282.816406 24.179688 260.488281 14.734375 C 237.367188 4.953125 212.808594 -0.00390625 187.5 -0.00390625 C 162.191406 -0.00390625 137.632812 4.953125 114.511719 14.734375 C 92.183594 24.179688 72.132812 37.695312 54.914062 54.914062 C 37.695312 72.132812 24.179688 92.183594 14.734375 114.511719 C 4.953125 137.632812 -0.00390625 162.191406 -0.00390625 187.5 C -0.00390625 212.808594 4.953125 237.367188 14.734375 260.488281 C 24.179688 282.816406 37.695312 302.867188 54.914062 320.085938 C 72.132812 337.304688 92.183594 350.820312 114.511719 360.265625 C 137.632812 370.046875 162.191406 375.003906 187.5 375.003906 C 211.898438 375.003906 235.597656 370.394531 257.984375 361.300781 C 259.625 361.394531 261.25 361.640625 262.835938 362.039062 C 264.632812 362.492188 267.046875 363.003906 269.816406 362.917969 C 270.652344 362.894531 271.480469 362.816406 272.285156 362.683594 C 278.363281 361.695312 283.652344 357.371094 285.761719 351.667969 C 286.367188 350.03125 286.703125 348.316406 286.78125 346.59375 C 298.789062 339.089844 309.933594 330.238281 320.085938 320.085938 C 324.597656 315.574219 328.84375 310.863281 332.839844 305.96875 C 333.113281 305.933594 333.386719 305.90625 333.660156 305.878906 C 335.503906 305.714844 337.953125 305.394531 340.542969 304.402344 C 341.320312 304.101562 342.078125 303.75 342.792969 303.363281 C 348.199219 300.417969 351.761719 294.589844 351.867188 288.511719 C 351.914062 285.839844 351.300781 283.214844 350.15625 280.84375 C 353.917969 274.296875 357.296875 267.503906 360.265625 260.488281 C 370.046875 237.367188 375.003906 212.808594 375.003906 187.5 Z M 226.425781 337.359375 C 225.445312 338.855469 224.71875 340.496094 224.257812 342.199219 C 212.355469 345.007812 200.039062 346.457031 187.5 346.457031 C 145.042969 346.457031 105.125 329.921875 75.101562 299.898438 C 45.078125 269.875 28.542969 229.957031 28.542969 187.5 C 28.542969 145.042969 45.078125 105.125 75.101562 75.101562 C 105.125 45.078125 145.042969 28.542969 187.5 28.542969 C 229.957031 28.542969 269.875 45.078125 299.898438 75.101562 C 329.921875 105.125 346.457031 145.042969 346.457031 187.5 C 346.457031 205.777344 343.375 223.574219 337.492188 240.324219 C 336.246094 240.335938 335.023438 240.554688 333.875 241 C 333.769531 241.039062 333.667969 241.078125 333.566406 241.121094 C 332.6875 241.496094 331.863281 241.992188 331.09375 242.609375 C 329.859375 237.148438 326.882812 232 323.015625 228.691406 C 318.378906 224.722656 313.207031 223.410156 308.835938 225.09375 C 307.722656 225.523438 306.679688 226.140625 305.730469 226.933594 C 302.839844 229.34375 301.042969 233.074219 300.558594 237.589844 C 297.1875 234.507812 293.359375 232.894531 289.582031 233.007812 C 288.308594 233.042969 287.082031 233.285156 285.9375 233.726562 C 281.601562 235.394531 278.640625 239.789062 277.804688 245.777344 C 277.132812 250.601562 278.1875 256.144531 280.636719 260.910156 C 279.664062 260.90625 278.71875 261.03125 277.808594 261.28125 C 277.496094 261.371094 277.183594 261.472656 276.882812 261.589844 C 273.554688 262.871094 270.976562 265.875 269.988281 269.628906 C 269.300781 272.238281 269.378906 275.078125 270.207031 278.269531 C 268.886719 277.785156 267.515625 277.546875 266.121094 277.589844 C 264.933594 277.628906 263.742188 277.863281 262.585938 278.296875 C 259.058594 279.617188 256.132812 282.542969 254.175781 286.644531 C 252.015625 282.625 248.9375 279.832031 245.335938 278.6875 C 244.121094 278.304688 242.882812 278.125 241.65625 278.164062 C 237.015625 278.304688 232.765625 281.472656 229.996094 286.847656 C 227.769531 291.179688 226.929688 296.757812 227.667969 302.066406 C 226.75 301.742188 225.816406 301.546875 224.875 301.480469 C 224.550781 301.460938 224.222656 301.453125 223.898438 301.464844 C 220.332031 301.574219 216.90625 303.558594 214.734375 306.769531 C 213.0625 309.242188 212.171875 312.273438 212.011719 316.046875 C 211.875 319.222656 212.230469 322.390625 213.0625 325.460938 C 214.320312 330.089844 216.613281 333.335938 219.882812 335.101562 C 221.871094 336.175781 224.171875 336.707031 226.53125 336.632812 C 226.667969 336.628906 226.804688 336.625 226.941406 336.617188 C 226.761719 336.863281 226.589844 337.109375 226.425781 337.359375 Z M 323.996094 252.984375 C 322.527344 254.542969 320.359375 255.371094 318.183594 255.410156 C 314.804688 255.472656 310.878906 253.722656 308.875 250.914062 C 305.398438 246.042969 304.183594 235.292969 309.207031 231.097656 C 312.398438 228.4375 316.679688 230.414062 319.488281 232.8125 C 322.859375 235.699219 325.15625 240.285156 325.957031 244.5625 C 326.050781 245.046875 326.113281 245.542969 326.148438 246.039062 C 326.316406 248.574219 325.707031 251.171875 323.996094 252.984375 Z M 299.136719 262.582031 C 297.480469 263.996094 295.308594 264.8125 293.175781 264.621094 C 290.695312 264.398438 288.515625 262.855469 286.960938 260.84375 C 286.65625 260.449219 286.375 260.039062 286.121094 259.613281 C 283.890625 255.878906 282.570312 250.921875 283.179688 246.527344 C 283.6875 242.871094 285.585938 238.550781 289.738281 238.429688 C 296.28125 238.238281 302.5 247.09375 303.125 253.042969 C 303.484375 256.476562 301.707031 260.390625 299.136719 262.582031 Z M 273.621094 288.398438 C 275.847656 292.234375 276.5 297.324219 275.84375 301.625 C 275.769531 302.113281 275.667969 302.601562 275.535156 303.078125 C 274.855469 305.53125 273.421875 307.78125 271.207031 308.925781 C 269.304688 309.910156 266.984375 309.972656 264.917969 309.292969 C 261.710938 308.234375 258.582031 305.285156 257.621094 301.96875 C 255.949219 296.226562 258.359375 285.675781 264.488281 283.378906 C 268.382812 281.921875 271.769531 285.203125 273.621094 288.398438 Z M 233.65625 304.09375 C 233.5 303.621094 233.371094 303.140625 233.273438 302.65625 C 232.398438 298.394531 232.792969 293.277344 234.824219 289.332031 C 236.511719 286.050781 239.730469 282.601562 243.691406 283.859375 C 249.925781 285.84375 252.867188 296.257812 251.492188 302.078125 C 250.695312 305.4375 247.722656 308.542969 244.570312 309.761719 C 242.542969 310.546875 240.222656 310.601562 238.269531 309.710938 C 236.003906 308.683594 234.457031 306.507812 233.65625 304.09375 Z M 235.625 323.136719 C 235.625 323.144531 235.625 323.148438 235.621094 323.15625 C 235.304688 328.953125 227.574219 333.089844 222.460938 330.324219 C 220.1875 329.097656 218.976562 326.535156 218.300781 324.039062 C 217.617188 321.515625 217.324219 318.886719 217.433594 316.277344 C 217.53125 314.011719 217.960938 311.6875 219.230469 309.8125 C 220.382812 308.101562 222.382812 306.753906 224.507812 306.898438 C 225.777344 306.980469 226.964844 307.585938 227.953125 308.382812 C 232.078125 311.707031 235.914062 317.691406 235.625 323.136719 Z M 280.671875 349.785156 C 279.230469 353.675781 275.503906 356.660156 271.414062 357.328125 C 268.933594 357.730469 266.539062 357.378906 264.164062 356.777344 C 261.324219 356.0625 258.417969 355.75 255.523438 355.835938 C 252.625 355.925781 249.742188 356.414062 246.953125 357.304688 C 244.621094 358.046875 242.25 358.546875 239.75 358.292969 C 235.628906 357.875 231.726562 355.125 230.050781 351.328125 C 228.503906 347.824219 228.859375 343.542969 230.960938 340.339844 C 234.261719 335.316406 240.363281 333.175781 243.074219 327.5625 C 245.550781 322.425781 247.304688 315.382812 254.28125 315.167969 C 261.257812 314.957031 263.4375 321.878906 266.226562 326.855469 C 269.273438 332.296875 275.492188 334.058594 279.09375 338.875 C 281.386719 341.941406 282.003906 346.191406 280.671875 349.785156 Z M 290.664062 323.472656 C 289.976562 325.964844 288.757812 328.523438 286.480469 329.746094 C 281.359375 332.492188 273.640625 328.332031 273.34375 322.53125 C 273.34375 322.527344 273.339844 322.519531 273.339844 322.515625 C 273.070312 317.070312 276.925781 311.097656 281.058594 307.785156 C 282.050781 306.992188 283.242188 306.390625 284.507812 306.3125 C 286.632812 306.175781 288.628906 307.53125 289.78125 309.242188 C 291.042969 311.125 291.464844 313.449219 291.554688 315.714844 C 291.65625 318.324219 291.355469 320.953125 290.664062 323.472656 Z M 285.070312 289.300781 C 282.519531 288.894531 280.527344 286.875 279.0625 284.746094 C 277.585938 282.589844 276.4375 280.207031 275.679688 277.707031 C 275.023438 275.535156 274.660156 273.199219 275.234375 271.011719 C 275.761719 269.015625 277.203125 267.082031 279.253906 266.511719 C 280.480469 266.175781 281.800781 266.351562 282.996094 266.777344 C 287.988281 268.550781 293.585938 272.929688 295.113281 278.164062 C 295.117188 278.167969 295.117188 278.175781 295.121094 278.183594 C 296.738281 283.757812 290.808594 290.21875 285.070312 289.300781 Z M 340.195312 298.597656 C 337.992188 299.796875 335.613281 300.257812 333.175781 300.476562 C 330.257812 300.738281 327.414062 301.402344 324.707031 302.445312 C 322.003906 303.484375 319.445312 304.902344 317.105469 306.664062 C 315.152344 308.132812 313.078125 309.390625 310.636719 309.976562 C 306.609375 310.949219 302.015625 309.640625 299.175781 306.613281 C 296.558594 303.816406 295.476562 299.660156 296.40625 295.941406 C 297.859375 290.109375 302.910156 286.070312 303.609375 279.878906 C 304.25 274.210938 303.574219 266.984375 310.089844 264.476562 C 316.601562 261.96875 320.949219 267.78125 325.226562 271.554688 C 329.898438 275.679688 336.351562 275.289062 341.34375 278.640625 C 344.523438 280.777344 346.507812 284.585938 346.441406 288.414062 C 346.371094 292.566406 343.835938 296.613281 340.195312 298.597656 Z M 345.296875 267.582031 C 341.371094 271.867188 332.710938 270.496094 330.511719 265.121094 C 330.507812 265.113281 330.507812 265.109375 330.503906 265.101562 C 328.449219 260.054688 330.109375 253.144531 332.917969 248.652344 C 333.589844 247.574219 334.515625 246.613281 335.683594 246.117188 C 337.644531 245.289062 339.976562 245.90625 341.628906 247.140625 C 343.441406 248.5 344.609375 250.554688 345.441406 252.664062 C 346.402344 255.09375 346.988281 257.671875 347.167969 260.28125 C 347.347656 262.859375 347.042969 265.675781 345.296875 267.582031 Z M 349.285156 248.070312 C 348.085938 245.851562 346.632812 244.109375 344.878906 242.796875 C 344.773438 242.714844 344.660156 242.644531 344.550781 242.566406 C 350.660156 225.101562 353.855469 206.546875 353.855469 187.5 C 353.855469 143.066406 336.550781 101.289062 305.128906 69.871094 C 273.710938 38.449219 231.933594 21.144531 187.5 21.144531 C 143.066406 21.144531 101.289062 38.449219 69.871094 69.871094 C 38.449219 101.289062 21.144531 143.066406 21.144531 187.5 C 21.144531 231.933594 38.449219 273.710938 69.871094 305.128906 C 101.289062 336.550781 143.066406 353.855469 187.5 353.855469 C 199.917969 353.855469 212.128906 352.492188 223.960938 349.855469 C 224.195312 351.109375 224.5625 352.339844 225.085938 353.519531 C 225.4375 354.320312 225.863281 355.085938 226.339844 355.816406 C 213.691406 358.730469 200.710938 360.207031 187.5 360.207031 C 164.179688 360.207031 141.5625 355.640625 120.277344 346.636719 C 99.710938 337.941406 81.242188 325.484375 65.378906 309.621094 C 49.515625 293.757812 37.058594 275.289062 28.363281 254.722656 C 19.359375 233.4375 14.792969 210.820312 14.792969 187.5 C 14.792969 164.179688 19.359375 141.5625 28.363281 120.277344 C 37.058594 99.710938 49.515625 81.242188 65.378906 65.378906 C 81.242188 49.515625 99.710938 37.058594 120.277344 28.363281 C 141.5625 19.359375 164.179688 14.792969 187.5 14.792969 C 210.820312 14.792969 233.4375 19.359375 254.722656 28.363281 C 275.289062 37.058594 293.757812 49.515625 309.621094 65.378906 C 325.484375 81.242188 337.941406 99.710938 346.636719 120.277344 C 355.640625 141.5625 360.207031 164.179688 360.207031 187.5 C 360.207031 208.40625 356.53125 228.746094 349.285156 248.070312 Z M 349.285156 248.070312 " fill-opacity="1" fill-rule="nonzero"/><path fill="#004aad" d="M 197.605469 189.464844 C 200.652344 194.941406 206.34375 196.742188 214.859375 197.863281 C 223.753906 199.042969 225.953125 210.066406 227.910156 219.339844 C 231.390625 235.796875 228.492188 256.757812 223.25 271.15625 C 220.347656 279.164062 209.992188 282.617188 192.941406 266.957031 C 183.730469 258.496094 175.652344 253.738281 163.5625 252.480469 C 144.8125 250.539062 137.242188 231.519531 142.585938 217.472656 C 147.429688 204.730469 156.773438 194.429688 175.6875 185.726562 C 183.238281 182.253906 193.558594 182.179688 197.605469 189.464844 " fill-opacity="1" fill-rule="evenodd"/><g clip-path="url(#c931cac21b)"><path fill="#004aad" d="M 230.710938 201.128906 C 232.371094 214.792969 240.722656 215.042969 244.703125 211.871094 C 255.367188 203.359375 261.597656 193.480469 261.019531 183.390625 C 260.46875 173.722656 249.964844 165.304688 240.503906 171.726562 C 233.207031 176.671875 229.253906 189.136719 230.710938 201.128906 " fill-opacity="1" fill-rule="evenodd"/></g><path fill="#004aad" d="M 216.722656 172.65625 C 212.492188 175.664062 203.980469 180.25 198.542969 166.117188 C 194.457031 155.527344 193.796875 141.355469 201.335938 132.976562 C 208.425781 125.09375 223.003906 132.707031 226.050781 143.714844 C 228.894531 154.011719 225.644531 166.328125 216.722656 172.65625 " fill-opacity="1" fill-rule="evenodd"/><path fill="#004aad" d="M 179.417969 161.921875 C 175.957031 169.765625 165.191406 172.230469 158.433594 164.25 C 149.984375 154.28125 147.9375 140.660156 152.84375 130.175781 C 159.117188 116.765625 174.53125 114.878906 180.816406 127.84375 C 185.785156 138.074219 184.066406 151.398438 179.417969 161.921875 " fill-opacity="1" fill-rule="evenodd"/><path fill="#004aad" d="M 147.242188 185.265625 C 147.078125 193.734375 139.988281 199.804688 132.324219 196.933594 C 122.492188 193.25 112.96875 182.527344 110.875 169.390625 C 107.855469 150.476562 122.960938 141.988281 137.453125 154.917969 C 144.761719 161.433594 147.480469 173.46875 147.242188 185.265625 " fill-opacity="1" fill-rule="evenodd"/><g fill="#004aad" fill-opacity="1"><g transform="translate(77.65376, 141.492392)"><g><path d="M -4.171875 -32.359375 C -2.640625 -32.046875 -1.203125 -31.363281 0.140625 -30.3125 C 1.492188 -29.257812 2.503906 -28.035156 3.171875 -26.640625 C 3.847656 -25.253906 4.179688 -23.882812 4.171875 -22.53125 C 4.160156 -19.757812 3.4375 -17.453125 2 -15.609375 L -1.046875 -11.6875 L 2.484375 -8.953125 C 2.960938 -8.566406 3.3125 -8.265625 3.53125 -8.046875 C 3.75 -7.835938 3.945312 -7.53125 4.125 -7.125 C 4.46875 -6.40625 4.117188 -5.375 3.078125 -4.03125 C 1.941406 -2.570312 0.894531 -2.015625 -0.0625 -2.359375 C -0.519531 -2.503906 -1.113281 -2.863281 -1.84375 -3.4375 L -19.1875 -16.921875 C -19.675781 -17.296875 -20.023438 -17.585938 -20.234375 -17.796875 C -20.453125 -18.015625 -20.65625 -18.332031 -20.84375 -18.75 C -21.164062 -19.46875 -20.804688 -20.492188 -19.765625 -21.828125 L -14.578125 -28.515625 C -13.148438 -30.347656 -11.097656 -31.613281 -8.421875 -32.3125 C -7.117188 -32.664062 -5.703125 -32.679688 -4.171875 -32.359375 Z M -3.515625 -19.921875 C -3.023438 -20.546875 -2.773438 -21.335938 -2.765625 -22.296875 C -2.753906 -23.265625 -3.207031 -24.101562 -4.125 -24.8125 C -5.050781 -25.53125 -5.984375 -25.769531 -6.921875 -25.53125 C -7.859375 -25.289062 -8.578125 -24.851562 -9.078125 -24.21875 L -12.125 -20.296875 L -6.578125 -15.984375 Z M -3.515625 -19.921875 "/></g></g></g><g fill="#004aad" fill-opacity="1"><g transform="translate(101.746568, 113.29729)"><g><path d="M 2.890625 -10.71875 L 12.796875 -17.8125 C 13.296875 -18.175781 13.679688 -18.425781 13.953125 -18.5625 C 14.222656 -18.695312 14.582031 -18.796875 15.03125 -18.859375 C 15.820312 -18.972656 16.707031 -18.34375 17.6875 -16.96875 C 18.757812 -15.46875 18.992188 -14.304688 18.390625 -13.484375 C 18.117188 -13.097656 17.609375 -12.632812 16.859375 -12.09375 L 4.109375 -2.953125 C 2.609375 -1.878906 1.441406 -1.65625 0.609375 -2.28125 C 0.222656 -2.53125 -0.238281 -3.035156 -0.78125 -3.796875 L -13.59375 -21.671875 C -14.382812 -22.765625 -14.710938 -23.65625 -14.578125 -24.34375 C -14.453125 -25.03125 -13.820312 -25.78125 -12.6875 -26.59375 L -0.015625 -35.6875 C 0.484375 -36.050781 0.863281 -36.300781 1.125 -36.4375 C 1.394531 -36.582031 1.75 -36.6875 2.1875 -36.75 C 2.976562 -36.863281 3.867188 -36.234375 4.859375 -34.859375 C 5.929688 -33.359375 6.164062 -32.195312 5.5625 -31.375 C 5.289062 -30.988281 4.78125 -30.523438 4.03125 -29.984375 L -5.84375 -22.90625 L -3.515625 -19.65625 L 2.859375 -24.21875 C 3.347656 -24.570312 3.726562 -24.816406 4 -24.953125 C 4.269531 -25.097656 4.625 -25.203125 5.0625 -25.265625 C 5.863281 -25.390625 6.757812 -24.757812 7.75 -23.375 C 8.820312 -21.875 9.035156 -20.707031 8.390625 -19.875 C 8.128906 -19.46875 7.628906 -19 6.890625 -18.46875 L 0.578125 -13.953125 Z M 2.890625 -10.71875 "/></g></g></g><g fill="#004aad" fill-opacity="1"><g transform="translate(132.832131, 92.884414)"><g><path d="M -5.84375 -28.671875 L 15.046875 -35.609375 C 15.847656 -35.878906 16.46875 -35.976562 16.90625 -35.90625 C 17.34375 -35.84375 17.691406 -35.628906 17.953125 -35.265625 C 18.210938 -34.910156 18.445312 -34.40625 18.65625 -33.75 C 18.875 -33.101562 18.984375 -32.566406 18.984375 -32.140625 C 18.992188 -31.710938 18.875 -31.375 18.625 -31.125 C 18.25 -30.757812 17.644531 -30.4375 16.8125 -30.15625 L 9.640625 -27.78125 L 15.90625 -8.875 C 16.101562 -8.300781 16.226562 -7.867188 16.28125 -7.578125 C 16.332031 -7.285156 16.328125 -6.921875 16.265625 -6.484375 C 16.203125 -6.054688 15.953125 -5.691406 15.515625 -5.390625 C 15.085938 -5.085938 14.484375 -4.804688 13.703125 -4.546875 C 12.929688 -4.285156 12.289062 -4.148438 11.78125 -4.140625 C 11.28125 -4.140625 10.875 -4.289062 10.5625 -4.59375 C 10.25 -4.90625 10.023438 -5.195312 9.890625 -5.46875 C 9.753906 -5.75 9.59375 -6.175781 9.40625 -6.75 L 3.140625 -25.625 L -4.078125 -23.21875 C -4.878906 -22.957031 -5.5 -22.859375 -5.9375 -22.921875 C -6.375 -22.984375 -6.722656 -23.191406 -6.984375 -23.546875 C -7.242188 -23.910156 -7.476562 -24.414062 -7.6875 -25.0625 C -7.90625 -25.707031 -8.015625 -26.242188 -8.015625 -26.671875 C -8.023438 -27.109375 -7.90625 -27.453125 -7.65625 -27.703125 C -7.28125 -28.078125 -6.675781 -28.398438 -5.84375 -28.671875 Z M -5.84375 -28.671875 "/></g></g></g><g fill="#004aad" fill-opacity="1"><g transform="translate(172.05306, 81.90743)"><g><path d="M 19.234375 -28.140625 C 19.441406 -28.546875 19.796875 -28.828125 20.296875 -28.984375 C 20.796875 -29.148438 21.425781 -29.234375 22.1875 -29.234375 C 22.957031 -29.242188 23.566406 -29.1875 24.015625 -29.0625 C 24.460938 -28.9375 24.804688 -28.785156 25.046875 -28.609375 C 25.296875 -28.429688 25.484375 -28.171875 25.609375 -27.828125 C 25.753906 -27.378906 25.828125 -26.691406 25.828125 -25.765625 L 26.0625 -3.796875 C 26.0625 -3.179688 26.039062 -2.722656 26 -2.421875 C 25.96875 -2.117188 25.847656 -1.769531 25.640625 -1.375 C 25.285156 -0.65625 24.257812 -0.289062 22.5625 -0.28125 C 20.71875 -0.257812 19.632812 -0.734375 19.3125 -1.703125 C 19.144531 -2.140625 19.054688 -2.820312 19.046875 -3.75 L 18.953125 -11.78125 L 8.46875 -11.6875 L 8.5625 -3.625 C 8.5625 -3.007812 8.539062 -2.546875 8.5 -2.234375 C 8.46875 -1.929688 8.347656 -1.582031 8.140625 -1.1875 C 7.785156 -0.476562 6.757812 -0.113281 5.0625 -0.09375 C 3.21875 -0.0703125 2.132812 -0.546875 1.8125 -1.515625 C 1.644531 -1.960938 1.554688 -2.648438 1.546875 -3.578125 L 1.3125 -25.546875 C 1.3125 -26.160156 1.328125 -26.617188 1.359375 -26.921875 C 1.398438 -27.222656 1.523438 -27.570312 1.734375 -27.96875 C 2.097656 -28.6875 3.125 -29.050781 4.8125 -29.0625 C 6.65625 -29.082031 7.753906 -28.609375 8.109375 -27.640625 C 8.253906 -27.203125 8.328125 -26.519531 8.328125 -25.59375 L 8.421875 -17.515625 L 18.90625 -17.609375 L 18.8125 -25.71875 C 18.8125 -26.332031 18.828125 -26.789062 18.859375 -27.09375 C 18.898438 -27.394531 19.023438 -27.742188 19.234375 -28.140625 Z M 19.234375 -28.140625 "/></g></g></g><g fill="#004aad" fill-opacity="1"><g transform="translate(211.475213, 83.163787)"><g><path d="M 25.578125 -20.21875 L 29.140625 4.046875 C 29.296875 5.035156 29.304688 5.75 29.171875 6.1875 C 28.878906 7.09375 27.894531 7.679688 26.21875 7.953125 C 25.21875 8.109375 24.472656 8.109375 23.984375 7.953125 C 23.503906 7.804688 23.140625 7.570312 22.890625 7.25 C 22.648438 6.925781 22.5 6.613281 22.4375 6.3125 C 22.375 6.007812 22.300781 5.570312 22.21875 5 L 21.53125 0.296875 L 11.078125 -3 L 7.84375 0.46875 C 7.414062 0.882812 7.097656 1.1875 6.890625 1.375 C 6.679688 1.5625 6.378906 1.722656 5.984375 1.859375 C 5.597656 2.003906 5.160156 2 4.671875 1.84375 C 4.179688 1.6875 3.570312 1.265625 2.84375 0.578125 C 1.601562 -0.597656 1.128906 -1.640625 1.421875 -2.546875 C 1.554688 -2.984375 1.972656 -3.5625 2.671875 -4.28125 L 19.515625 -22.15625 C 19.960938 -22.65625 20.523438 -22.988281 21.203125 -23.15625 C 21.878906 -23.332031 22.535156 -23.320312 23.171875 -23.125 C 24.523438 -22.695312 25.328125 -21.726562 25.578125 -20.21875 Z M 19.65625 -12.09375 L 15.546875 -7.71875 L 20.578125 -6.125 Z M 19.65625 -12.09375 "/></g></g></g><g fill="#004aad" fill-opacity="1"><g transform="translate(250.868875, 97.648192)"><g><path d="M 33 -10.703125 C 33.46875 -10.898438 33.953125 -10.910156 34.453125 -10.734375 C 34.953125 -10.566406 35.503906 -10.265625 36.109375 -9.828125 C 36.710938 -9.390625 37.160156 -8.988281 37.453125 -8.625 C 37.742188 -8.257812 37.929688 -7.925781 38.015625 -7.625 C 38.109375 -7.332031 38.085938 -7.007812 37.953125 -6.65625 C 37.816406 -6.195312 37.476562 -5.59375 36.9375 -4.84375 L 29.953125 4.859375 C 27.921875 7.691406 25.195312 9.640625 21.78125 10.703125 C 20.125 11.160156 18.378906 11.238281 16.546875 10.9375 C 14.710938 10.644531 12.972656 9.910156 11.328125 8.734375 C 9.691406 7.554688 8.453125 6.140625 7.609375 4.484375 C 6.765625 2.835938 6.328125 1.160156 6.296875 -0.546875 C 6.191406 -4.066406 7.171875 -7.265625 9.234375 -10.140625 L 16.1875 -19.796875 C 16.5625 -20.316406 16.851562 -20.6875 17.0625 -20.90625 C 17.269531 -21.132812 17.578125 -21.347656 17.984375 -21.546875 C 18.398438 -21.742188 18.851562 -21.757812 19.34375 -21.59375 C 19.84375 -21.425781 20.429688 -21.097656 21.109375 -20.609375 C 21.796875 -20.117188 22.296875 -19.664062 22.609375 -19.25 C 22.929688 -18.832031 23.050781 -18.40625 22.96875 -17.96875 C 22.863281 -17.289062 22.503906 -16.523438 21.890625 -15.671875 L 14.953125 -6.03125 C 14.015625 -4.71875 13.445312 -3.238281 13.25 -1.59375 C 13.132812 -0.769531 13.265625 0.0507812 13.640625 0.875 C 14.023438 1.707031 14.65625 2.4375 15.53125 3.0625 C 17.101562 4.1875 18.6875 4.453125 20.28125 3.859375 C 21.882812 3.265625 23.234375 2.207031 24.328125 0.6875 L 31.40625 -9.15625 C 32.007812 -9.988281 32.539062 -10.503906 33 -10.703125 Z M 33 -10.703125 "/></g></g></g><g fill="#004aad" fill-opacity="1"><g transform="translate(282.587011, 123.147227)"><g><path d="M 4.453125 -0.890625 C 4.703125 -1.941406 5.09375 -2.671875 5.625 -3.078125 C 6.164062 -3.484375 7.226562 -3.578125 8.8125 -3.359375 C 9.71875 -3.222656 10.394531 -2.859375 10.84375 -2.265625 C 11.289062 -1.679688 11.390625 -0.460938 11.140625 1.390625 C 11.003906 1.960938 10.984375 2.644531 11.078125 3.4375 C 11.179688 4.226562 11.40625 4.851562 11.75 5.3125 C 13.25 7.257812 14.796875 7.617188 16.390625 6.390625 C 16.867188 6.023438 17.066406 5.453125 16.984375 4.671875 C 16.898438 3.890625 16.625 3.046875 16.15625 2.140625 C 15.6875 1.234375 15.257812 0.195312 14.875 -0.96875 C 14.5 -2.144531 14.222656 -3.300781 14.046875 -4.4375 C 13.878906 -5.570312 14.066406 -6.769531 14.609375 -8.03125 C 15.160156 -9.300781 16.101562 -10.453125 17.4375 -11.484375 C 19.28125 -12.890625 21.414062 -13.429688 23.84375 -13.109375 C 26.269531 -12.785156 28.394531 -11.4375 30.21875 -9.0625 C 31.175781 -7.8125 31.882812 -6.539062 32.34375 -5.25 C 32.8125 -3.96875 33.035156 -3 33.015625 -2.34375 L 33.015625 -1.109375 C 32.910156 0.00390625 32.648438 0.722656 32.234375 1.046875 C 31.816406 1.367188 31.046875 1.5625 29.921875 1.625 C 28.328125 1.71875 27.238281 1.382812 26.65625 0.625 C 26.320312 0.175781 26.113281 -0.523438 26.03125 -1.484375 C 26.03125 -1.585938 26.046875 -1.789062 26.078125 -2.09375 C 26.109375 -2.40625 26.117188 -2.671875 26.109375 -2.890625 C 26.035156 -3.535156 25.738281 -4.195312 25.21875 -4.875 C 24.695312 -5.5625 24.101562 -6.007812 23.4375 -6.21875 C 22.78125 -6.425781 22.160156 -6.304688 21.578125 -5.859375 C 20.992188 -5.421875 20.726562 -4.796875 20.78125 -3.984375 C 20.84375 -3.171875 21.113281 -2.316406 21.59375 -1.421875 C 22.070312 -0.535156 22.539062 0.476562 23 1.625 C 23.46875 2.769531 23.816406 3.882812 24.046875 4.96875 C 24.285156 6.050781 24.144531 7.210938 23.625 8.453125 C 23.101562 9.703125 22.160156 10.847656 20.796875 11.890625 C 19.429688 12.941406 18.019531 13.59375 16.5625 13.84375 C 15.101562 14.09375 13.757812 13.992188 12.53125 13.546875 C 10.125 12.703125 8.175781 11.3125 6.6875 9.375 C 5.9375 8.394531 5.34375 7.367188 4.90625 6.296875 C 4.46875 5.234375 4.222656 4.300781 4.171875 3.5 C 3.992188 1.875 4.046875 0.597656 4.328125 -0.328125 Z M 4.453125 -0.890625 "/></g></g></g></svg>